<svg height="512" viewBox="0 0 512 512" width="512" xmlns="http://www.w3.org/2000/svg"><g id="Face_Savoring_Food"><g id="Flat"><path d="m256 512a256 256 0 0 1 -180.828-437.217 256 256 0 0 1 361.656 362.434 254.353 254.353 0 0 1 -180.828 74.783z" fill="#ffcc80"/><path d="m436.828 74.783a257.826 257.826 0 0 0 -47.511-37.426 257.015 257.015 0 0 1 10.683 73.576 255.989 255.989 0 0 1 -256 256 254.39 254.39 0 0 1 -133.317-37.357 256.108 256.108 0 0 0 426.145 107.641 256.016 256.016 0 0 0 0-362.434z" fill="#ffb74d"/><circle cx="64" cy="240" fill="#ffe4c0" r="24"/><circle cx="448" cy="240" fill="#ffe4c0" r="24"/><path d="m200 192a8 8 0 0 1 -8-8 24 24 0 0 0 -48 0 8 8 0 0 1 -16 0 40 40 0 0 1 80 0 8 8 0 0 1 -8 8z" fill="#424242"/><path d="m392 192a8 8 0 0 1 -8-8 24 24 0 0 0 -48 0 8 8 0 0 1 -16 0 40 40 0 0 1 80 0 8 8 0 0 1 -8 8z" fill="#424242"/><path d="m377.547 407.967a68.5 68.5 0 0 1 -48.378-20.289l-45.535-45.535 13.193-3.678c36.958-10.3 67.47-34.244 83.714-65.684l5.024-9.725 34.114 34.112a68.388 68.388 0 0 1 20.3 46.595 61.857 61.857 0 0 1 -62.429 64.2z" fill="#ef5350"/><path d="m412 328a124.459 124.459 0 0 1 26.358 2.817 69.01 69.01 0 0 0 -18.679-33.649l-34.114-34.112-5.024 9.725c-16.244 31.44-46.756 55.381-83.714 65.684l-13.193 3.678 31.923 31.923a123.756 123.756 0 0 1 96.443-46.066z" fill="#e53935"/><path d="m382.28 358.28a7.976 7.976 0 0 1 -5.657-2.343l-30.65-30.65a8 8 0 0 1 11.314-11.314l30.651 30.65a8 8 0 0 1 -5.658 13.657z" fill="#e53935"/><path d="m256 360c-84.364 0-153-61.907-153-138a8 8 0 0 1 16 0c0 67.271 61.458 122 137 122s137-54.729 137-122a8 8 0 0 1 16 0c0 76.093-68.636 138-153 138z" fill="#ef5350"/><circle cx="376" cy="380" fill="#ffb6b6" r="12"/></g></g></svg>
