<svg height="512" viewBox="0 0 512 512" width="512" xmlns="http://www.w3.org/2000/svg"><g id="Smiling_Face_With_Smiling_Eyes"><g id="Flat"><path d="m256 512c-34.27 0-67.946-8.1-100.092-24.067-30.031-14.919-57.359-35.96-81.223-62.539-47.463-52.862-74.685-120.436-74.685-185.394 0-64.208 26.7-124.543 75.172-169.891 48.328-45.209 112.548-70.109 180.828-70.109s132.5 24.9 180.828 70.109c48.472 45.348 75.172 105.683 75.172 169.891 0 64.958-27.222 132.532-74.685 185.394-23.864 26.579-51.192 47.62-81.223 62.539-32.146 15.967-65.822 24.067-100.092 24.067z" fill="#ffcc80"/><path d="m470.68 109.135q1.3 13.258 1.32 26.865c0 150.221-121.779 272-272 272a270.944 270.944 0 0 1 -178.965-67.181 301.144 301.144 0 0 0 53.65 84.575c23.864 26.579 51.192 47.62 81.223 62.539 32.146 15.967 65.822 24.067 100.092 24.067s67.946-8.1 100.092-24.067c30.031-14.919 57.359-35.96 81.223-62.539 47.463-52.862 74.685-120.436 74.685-185.394a227.707 227.707 0 0 0 -41.32-130.865z" fill="#ffb74d"/><path d="m192 160a8 8 0 0 1 -8-8 24 24 0 0 0 -48 0 8 8 0 0 1 -16 0 40 40 0 0 1 80 0 8 8 0 0 1 -8 8z" fill="#424242"/><path d="m384 160a8 8 0 0 1 -8-8 24 24 0 0 0 -48 0 8 8 0 0 1 -16 0 40 40 0 0 1 80 0 8 8 0 0 1 -8 8z" fill="#424242"/><circle cx="440" cy="152" fill="#ffe4c0" r="24"/><circle cx="72" cy="152" fill="#ffe4c0" r="24"/><g fill="#ef5350"><path d="m256 320c-40.234 0-78.14-12.249-106.735-34.489-29.19-22.703-45.265-53.072-45.265-85.511a8 8 0 0 1 16 0c0 57.346 61.009 104 136 104s136-46.654 136-104a8 8 0 0 1 16 0c0 32.439-16.075 62.808-45.265 85.511-28.595 22.24-66.501 34.489-106.735 34.489z"/><path d="m432 220c-30.085 0-44.352-22.111-47.692-33.8a8 8 0 1 1 15.384-4.4c.258.857 6.971 22.2 32.308 22.2a8 8 0 0 1 0 16z"/><path d="m80 220a8 8 0 0 1 0-16c25.337 0 32.05-21.341 32.323-22.25a8 8 0 1 1 15.369 4.448c-3.34 11.691-17.607 33.802-47.692 33.802z"/></g><path d="m288 352h-64a8 8 0 0 1 0-16h64a8 8 0 0 1 0 16z" fill="#ffb74d"/></g></g></svg>
