<svg height="512" viewBox="0 0 512 512" width="512" xmlns="http://www.w3.org/2000/svg"><g id="Expressionless_Face" data-name="Expressionless Face"><g id="Flat"><path d="m256 512a256 256 0 0 1 -180.828-437.217 256 256 0 0 1 361.656 362.434 254.352 254.352 0 0 1 -180.828 74.783z" fill="#ffcc80"/><path d="m436.828 74.783a258.146 258.146 0 0 0 -42.542-34.3 256.558 256.558 0 0 1 -53.458 284.739 256.2 256.2 0 0 1 -319.115 34.3 256.068 256.068 0 1 0 415.115-284.739z" fill="#ffb74d"/><g fill="#ffe4c0"><circle cx="88" cy="232" r="24"/><circle cx="424" cy="232" r="24"/><path d="m264 304h-16a8 8 0 0 1 0-16h16a8 8 0 0 1 0 16z"/></g><path d="m136 176h-64a8 8 0 0 1 0-16h64a8 8 0 0 1 0 16z" fill="#424242"/><path d="m376 272h-240a8 8 0 0 1 0-16h240a8 8 0 0 1 0 16z" fill="#ef5350"/><path d="m440 176h-64a8 8 0 0 1 0-16h64a8 8 0 0 1 0 16z" fill="#424242"/></g></g></svg>