<svg height="512" viewBox="0 0 512 512" width="512" xmlns="http://www.w3.org/2000/svg"><g id="Face_With_Hand_Over_Mouth"><g id="Flat"><path d="m240 512c-66.7 0-128.262-27.927-173.341-78.636-42.359-47.652-66.659-112.299-66.659-177.364s24.3-129.712 66.659-177.364c45.079-50.709 106.641-78.636 173.341-78.636 72.332 0 139.1 19.218 188.009 54.113 54.947 39.204 83.991 95.187 83.991 161.887 0 64.3-30.883 138.063-82.611 197.31-54.759 62.719-123.789 98.69-189.389 98.69z" fill="#ffcc80"/><path d="m463.669 85.861c.207 4.689.331 9.4.331 14.139 0 174.522-141.478 316-316 316a315.361 315.361 0 0 1 -108.233-19.028 254.869 254.869 0 0 0 26.891 36.392c45.08 50.709 106.642 78.636 173.342 78.636 65.6 0 134.63-35.971 189.389-98.69 51.728-59.247 82.611-133.01 82.611-197.31 0-50.363-16.568-94.607-48.331-130.139z" fill="#ffb74d"/><circle cx="80" cy="216" fill="#ffe4c0" r="24"/><circle cx="448" cy="200" fill="#ffe4c0" r="24"/><path d="m455.99 510.83h-.051a55.682 55.682 0 0 1 -33.529-11.2l-81.24-60.9.03-.04 67.14-89.57.04.03 81.2 60.86a55.947 55.947 0 0 1 11.48 78.06l-.03.04a55.968 55.968 0 0 1 -45.04 22.72z" fill="#2196f3"/><path d="m336.979 456a23.989 23.989 0 0 1 -22.859-31.17l-11.31-8.48a97.087 97.087 0 0 1 -14.63 1.11h-.02a95.462 95.462 0 0 1 -57.49-19.19l-57.25-42.91a24.674 24.674 0 0 1 -9.89-19.7 23.3 23.3 0 0 1 4.05-13.23 23.745 23.745 0 0 1 7.4-7.06 24.707 24.707 0 0 1 -5.06-14.91 23.3 23.3 0 0 1 4.05-13.23 23.945 23.945 0 0 1 6.56-6.52l-7.49-5.62a23.99 23.99 0 0 1 -4.1-34.5 23.664 23.664 0 0 1 18.35-8.58h.06a24.506 24.506 0 0 1 8.89 1.65 23.777 23.777 0 0 1 23.05-17.66h.06a24.9 24.9 0 0 1 14.83 4.94l47.88 35.89a31.923 31.923 0 0 1 5.8-14.87 31.545 31.545 0 0 1 11.62-9.81 32.665 32.665 0 0 1 14.291-3.3h.04a32.991 32.991 0 0 1 19.65 6.52l12.37 9.28a95.708 95.708 0 0 1 35.21 52.2 96.961 96.961 0 0 1 3.12 20.51l6.73 5.05a23.938 23.938 0 0 1 13.29-4.02h.07a24.031 24.031 0 0 1 14.31 4.77l.04.03a24 24 0 0 1 4.81 33.59l-67.182 89.62a24.1 24.1 0 0 1 -19.179 9.6z" fill="#fff"/><path d="m418.6 323.19-.04-.03a24.031 24.031 0 0 0 -14.31-4.77h-.07a23.938 23.938 0 0 0 -13.29 4.02l-6.73-5.05a96.087 96.087 0 0 0 -8.889-36.442 164.066 164.066 0 0 1 -153.005 111.053l8.4 6.3a95.462 95.462 0 0 0 57.49 19.19h.02a97.087 97.087 0 0 0 14.63-1.11l11.31 8.48a23.993 23.993 0 0 0 22.863 31.169h.071a24.1 24.1 0 0 0 19.179-9.6l67.181-89.62a24 24 0 0 0 -4.81-33.59z" fill="#e5e5e5"/><g fill="#cfcfcf"><path d="m268.81 284.8a8 8 0 0 1 -11.2 1.6s-71.53-53.75-71.97-54.33c.55-.04 7.76.49 10.6 1.59a23.937 23.937 0 0 1 4.69-9.08c.11-.13.22-.27.35-.4l65.93 49.42a8 8 0 0 1 1.6 11.2z"/><path d="m238.4 332.78a7.92 7.92 0 0 1 -6.4 3.21h-.01a7.975 7.975 0 0 1 -4.79-1.6l-55.91-41.91v-.01a22.952 22.952 0 0 1 2.68-5.24 23.945 23.945 0 0 1 6.56-6.52l-7.49-5.62a23.49 23.49 0 0 1 -3.18-2.87 8.045 8.045 0 0 1 2.93 1.38l64.01 47.98a8 8 0 0 1 1.6 11.2z"/><path d="m219.21 356.8a8 8 0 0 1 -11.2 1.6l-42.62-31.95a22.732 22.732 0 0 1 2.19-4.02 23.745 23.745 0 0 1 7.4-7.06 24.8 24.8 0 0 1 -2.14-3.33l44.76 33.56a7.989 7.989 0 0 1 1.61 11.2z"/><path d="m325.04 278.39a8 8 0 0 1 -11.2 1.6l-31.7-23.76a31.874 31.874 0 0 1 5.72-14.27c.22-.31.46-.62.69-.92l34.89 26.15a8 8 0 0 1 1.6 11.2z"/></g><path d="m200 192a8 8 0 0 1 -8-8 24 24 0 0 0 -48 0 8 8 0 0 1 -16 0 40 40 0 0 1 80 0 8 8 0 0 1 -8 8z" fill="#424242"/><path d="m392 192a8 8 0 0 1 -8-8 24 24 0 0 0 -48 0 8 8 0 0 1 -16 0 40 40 0 0 1 80 0 8 8 0 0 1 -8 8z" fill="#424242"/><path d="m366.68 357.78a8 8 0 1 0 -6.41 3.2 7.983 7.983 0 0 0 6.41-3.2z" fill="#cfcfcf"/><path d="m374.67 333.77a8 8 0 0 0 11.2-1.6l8.867-11.825a24.055 24.055 0 0 0 -3.847 2.065l-6.73-5.05c-.124-2.86-.384-5.716-.763-8.559l-10.328 13.779a8.01 8.01 0 0 0 1.601 11.19z" fill="#cfcfcf"/><path d="m302.81 416.35 11.31 8.48a23.922 23.922 0 0 0 -.907 4.271l34.277-45.721a8 8 0 0 0 -12.81-9.6l-31.911 42.575z" fill="#cfcfcf"/><path d="m492.505 412.376a116.128 116.128 0 0 1 -121.131 49l51.036 38.254a55.682 55.682 0 0 0 33.529 11.2h.051a55.968 55.968 0 0 0 45.04-22.72l.03-.04a55.94 55.94 0 0 0 -8.555-75.694z" fill="#1e88e5"/></g></g></svg>
